<?xml version="1.0" standalone="no"?>
<!DOCTYPE svg PUBLIC "-//W3C//DTD SVG 20010904//EN"
 "http://www.w3.org/TR/2001/REC-SVG-20010904/DTD/svg10.dtd">
<svg version="1.0" xmlns="http://www.w3.org/2000/svg"
 width="1024.000000pt" height="1024.000000pt" viewBox="0 0 1024.000000 1024.000000"
 preserveAspectRatio="xMidYMid meet">
<metadata>
Created by potrace 1.14, written by Peter Selinger 2001-2017
</metadata>
<g transform="translate(0.000000,1024.000000) scale(0.100000,-0.100000)"
fill="#000000" stroke="none">
<path d="M6915 9220 c-68 -27 -238 -196 -312 -310 -30 -47 -92 -123 -138 -170
-45 -47 -116 -124 -156 -171 -41 -48 -155 -173 -254 -278 -99 -106 -225 -245
-280 -311 -56 -65 -144 -165 -197 -222 -52 -57 -129 -143 -170 -193 -41 -49
-124 -142 -185 -205 -60 -63 -128 -142 -151 -176 -40 -59 -308 -355 -542 -599
-179 -186 -252 -272 -323 -380 -35 -55 -91 -125 -123 -156 -184 -175 -284
-306 -308 -401 -12 -50 -27 -53 -336 -49 -270 3 -287 2 -309 -17 -24 -19 -24
-19 -8 -61 19 -45 22 -135 8 -174 -8 -20 -18 -25 -68 -30 -32 -3 -83 -1 -113
4 -30 5 -91 12 -135 15 -70 6 -83 4 -104 -13 -22 -18 -24 -26 -22 -100 2 -88
-14 -145 -46 -161 -19 -10 -421 1 -483 13 -52 10 -82 -18 -96 -87 -8 -41 -7
-62 3 -92 15 -46 17 -149 3 -176 -16 -30 -75 -41 -148 -30 -55 9 -68 8 -109
-10 -36 -16 -44 -23 -37 -37 11 -25 17 -167 10 -208 -11 -58 -35 -67 -157 -55
-57 6 -116 13 -131 16 -37 7 -49 -19 -56 -119 -7 -114 -14 -119 -146 -115 -71
2 -108 -1 -118 -9 -28 -24 -39 -88 -33 -191 5 -82 4 -102 -12 -132 -20 -39
-32 -41 -140 -25 -47 7 -54 5 -76 -17 l-25 -26 3 -711 c2 -391 7 -720 10 -732
11 -34 56 -47 126 -36 54 9 63 8 87 -10 27 -20 27 -21 32 -174 8 -212 27 -253
110 -229 50 14 106 12 139 -5 35 -18 41 -44 41 -188 0 -60 5 -127 12 -149 l11
-39 116 7 c71 4 147 2 196 -5 60 -9 96 -9 146 0 59 10 70 10 112 -9 l47 -21 0
-108 c0 -168 -63 -151 542 -152 297 0 516 -5 521 -10 5 -5 11 -49 14 -98 7
-140 9 -147 53 -178 37 -25 46 -27 107 -22 61 5 70 8 100 41 32 34 33 39 33
115 0 91 10 125 40 141 13 7 91 13 198 15 98 2 185 6 195 10 14 6 17 20 17 90
0 45 -5 97 -11 114 -10 27 -9 35 5 49 14 14 37 17 125 17 74 -1 114 -5 124
-14 13 -10 16 -47 19 -219 3 -184 5 -211 23 -246 28 -54 86 -74 162 -55 62 14
66 18 85 84 12 40 14 110 11 360 -2 171 -1 343 2 383 6 68 8 73 38 88 25 13
46 15 107 9 113 -11 191 -11 206 0 7 6 18 39 23 74 15 94 30 105 144 109 132
5 129 1 121 182 l-7 146 28 22 c26 21 38 22 190 22 l163 0 27 31 c27 33 28 57
3 121 -15 40 -2 75 33 94 25 12 48 14 118 9 70 -6 94 -4 118 8 40 21 43 31 36
132 -8 118 0 126 111 118 95 -6 150 10 165 51 6 13 7 79 4 148 -5 101 -3 125
9 135 8 7 64 15 127 19 107 7 113 8 122 31 5 14 9 241 9 512 0 405 3 496 15
530 18 52 146 202 365 426 91 94 205 216 253 272 48 56 118 130 155 165 37 35
117 120 177 188 61 68 178 195 260 280 83 86 191 201 240 255 50 55 171 186
270 290 99 105 251 268 339 363 87 94 162 172 166 172 4 0 72 73 151 162 79
90 233 255 343 368 251 259 298 314 320 371 23 64 28 366 6 421 -17 43 -307
358 -360 391 -33 21 -47 22 -230 22 -168 0 -198 -2 -220 -17 -14 -10 -86 -83
-160 -164 -74 -80 -198 -213 -275 -294 -104 -109 -149 -165 -175 -216 -22 -42
-55 -87 -90 -119 -92 -85 -109 -105 -177 -209 -48 -74 -110 -146 -232 -271
-167 -171 -305 -321 -394 -431 -27 -32 -108 -123 -180 -201 -216 -232 -251
-273 -321 -382 -54 -84 -109 -147 -275 -315 -143 -146 -218 -230 -241 -271
-21 -37 -85 -113 -171 -200 -138 -141 -241 -259 -286 -327 -32 -48 -61 -58
-84 -29 -22 27 -33 104 -24 174 7 51 5 55 -22 77 -26 21 -34 22 -138 16 -60
-3 -127 -9 -147 -12 -34 -5 -42 -2 -71 27 -32 32 -34 39 -41 127 -7 90 -7 95
21 147 16 31 83 113 158 193 72 76 204 219 295 317 91 99 233 251 315 339 83
87 217 232 299 320 82 89 206 220 275 291 70 72 163 171 206 220 43 50 133
146 200 215 67 69 177 186 245 260 67 74 184 198 259 275 75 77 180 187 233
245 129 143 133 154 125 402 -5 148 -10 194 -23 220 -22 42 -240 265 -279 285
-20 11 -78 18 -185 24 -223 12 -259 10 -315 -11z m-4258 -4435 c5 -14 -20 -44
-38 -45 -17 -1 -42 29 -36 44 8 21 65 22 74 1z"/>
</g>
</svg>
